<?xml version="1.0" standalone="no"?>
<!DOCTYPE svg PUBLIC "-//W3C//DTD SVG 20010904//EN"
 "http://www.w3.org/TR/2001/REC-SVG-20010904/DTD/svg10.dtd">
<svg version="1.0" xmlns="http://www.w3.org/2000/svg"
 width="24.000000pt" height="24.000000pt" viewBox="0 0 24.000000 24.000000"
 preserveAspectRatio="xMidYMid meet">

<g transform="translate(0.000000,24.000000) scale(0.100000,-0.100000)"
fill="#000000" stroke="none">
<path d="M176 5100 c-67 -26 -131 -91 -156 -158 -20 -52 -20 -81 -20 -2382 0
-2301 0 -2330 20 -2382 25 -68 90 -132 158 -158 51 -20 86 -20 2382 -20 2296
0 2331 0 2382 20 68 26 133 90 158 158 20 52 20 81 20 2382 0 2296 0 2331 -20
2382 -26 68 -90 133 -158 158 -52 20 -80 20 -2385 20 -2278 -1 -2333 -1 -2381
-20z m388 -185 c50 -21 113 -80 138 -129 32 -62 36 -161 9 -221 -34 -77 -66
-111 -136 -146 -59 -29 -71 -31 -132 -27 -81 6 -136 31 -186 87 -50 56 -69
104 -71 182 -3 194 197 329 378 254z m4226 -12 c159 -82 195 -289 73 -424 -50
-56 -105 -81 -186 -87 -61 -4 -73 -2 -132 27 -70 35 -102 69 -136 146 -41 93
-13 221 63 291 53 49 66 57 116 71 64 18 136 9 202 -24z m-1950 -167 c661 -89
1232 -457 1585 -1021 162 -259 276 -587 315 -905 24 -204 7 -518 -41 -734 -52
-234 -178 -526 -314 -731 -358 -535 -943 -892 -1580 -965 -130 -14 -394 -12
-521 5 -844 111 -1542 685 -1804 1485 -81 244 -110 429 -110 690 0 261 29 446
110 690 261 797 953 1369 1795 1485 125 18 437 18 565 1z m-2261 -4037 c102
-51 157 -146 149 -258 -6 -79 -32 -134 -87 -184 -56 -50 -104 -69 -182 -71
-195 -3 -330 198 -254 380 17 42 81 111 119 131 85 44 170 45 255 2z m4207 3
c114 -58 175 -195 140 -315 -36 -124 -141 -203 -265 -201 -78 2 -126 21 -182
71 -55 50 -81 105 -87 184 -8 113 47 206 150 259 57 29 70 31 133 27 44 -2 85
-12 111 -25z"/>
<path d="M395 4725 c-38 -37 -35 -95 6 -129 17 -14 39 -26 49 -26 51 0 100 49
100 99 0 11 -12 33 -26 50 -34 41 -92 44 -129 6z"/>
<path d="M4596 4719 c-14 -17 -26 -39 -26 -50 0 -50 49 -99 100 -99 10 0 32
12 49 26 25 21 31 33 31 65 0 86 -100 123 -154 58z"/>
<path d="M2390 4564 c-14 -2 -65 -9 -115 -15 -203 -25 -472 -112 -665 -216
-675 -364 -1083 -1073 -1057 -1838 24 -692 386 -1307 978 -1663 213 -127 449
-213 714 -259 140 -24 501 -24 635 1 539 98 976 363 1287 780 254 339 384 709
400 1136 9 252 -22 466 -103 710 -233 699 -829 1210 -1564 1341 -109 20 -443
35 -510 23z m1389 -665 c102 -51 157 -146 149 -258 -6 -79 -32 -134 -87 -184
-87 -78 23 -72 -1281 -72 -1304 0 -1194 -6 -1281 72 -55 50 -81 105 -87 184
-8 112 47 207 149 258 l62 31 1157 0 1157 0 62 -31z m237 -714 c153 -45 232
-232 160 -379 -29 -59 -64 -94 -130 -129 l-41 -22 -1445 0 -1445 0 -41 22
c-66 35 -101 70 -130 129 -71 145 6 333 156 379 70 21 2844 22 2916 0z m30
-742 c66 -35 101 -70 130 -129 65 -133 11 -296 -123 -364 l-48 -25 -1415 -3
c-1024 -2 -1430 0 -1468 8 -72 16 -142 73 -177 145 -76 155 12 345 178 385 18
5 673 7 1457 7 l1425 -2 41 -22z m-283 -726 c52 -24 115 -83 139 -131 32 -62
36 -161 9 -221 -34 -76 -66 -111 -132 -144 l-62 -31 -1157 0 -1157 0 -62 31
c-102 51 -157 146 -149 258 7 95 42 153 131 221 51 38 74 39 1257 37 1073 -2
1147 -3 1183 -20z"/>
<path d="M1421 3736 c-53 -30 -64 -89 -25 -135 l26 -31 1138 0 1138 0 26 31
c29 34 32 55 14 94 -26 58 29 55 -1180 55 -905 -1 -1117 -3 -1137 -14z"/>
<path d="M1154 3010 c-47 -19 -68 -85 -43 -132 27 -50 -20 -48 1449 -48 1469
0 1422 -2 1449 48 18 34 13 79 -13 109 l-24 28 -1399 2 c-775 1 -1408 -2
-1419 -7z"/>
<path d="M1153 2275 c-57 -25 -71 -93 -29 -142 l24 -28 1412 0 1412 0 24 28
c43 50 28 118 -31 143 -50 21 -2764 20 -2812 -1z"/>
<path d="M1396 1519 c-14 -17 -26 -39 -26 -50 0 -32 26 -74 55 -87 20 -9 297
-12 1136 -12 1206 0 1151 -3 1177 55 18 39 15 60 -14 94 l-26 31 -1138 0
-1138 0 -26 -31z"/>
<path d="M401 524 c-25 -21 -31 -33 -31 -65 0 -86 100 -123 154 -58 14 17 26
39 26 49 0 51 -49 100 -99 100 -11 0 -33 -12 -50 -26z"/>
<path d="M4621 536 c-53 -30 -64 -89 -25 -135 54 -65 154 -28 154 58 0 32 -6
44 -31 65 -34 29 -62 32 -98 12z"/>
</g>
</svg>
